<?xml version="1.0" encoding="UTF-8"?>
<svg id="Layer_1" xmlns="http://www.w3.org/2000/svg" baseProfile="tiny" version="1.2" viewBox="0 0 48 48">
  <!-- Generator: Adobe Illustrator 30.3.0, SVG Export Plug-In . SVG Version: 2.1.3 Build 182)  -->
  <path d="M37.12,6.35c-.96-.35-1.89-.23-2.62.2-.73-.42-1.67-.55-2.62-.2-1.16.42-1.89,1.58-1.88,2.81h0c.44-.26.95-.4,1.5-.4s1.06.15,1.5.4c.89.52,1.49,1.48,1.5,2.58t0,0h0c0-1.1.61-2.06,1.5-2.58.44-.26.95-.4,1.5-.4s1.06.15,1.5.4h0c0-1.23-.72-2.39-1.88-2.81Z" fill="#b3b4b1"/>
  <path d="M46.96,26.43c-.04,3.01-1.16,6.01-3.21,8.21-2.07,2.22-4.92,3.59-7.88,4.25-5.64,1.26-11.82-.08-16.42-3.58-4.6-3.51-7.52-9.13-7.7-14.91-5.37-.58-10.05-5.14-10.75-10.5.48-.09.96-.2,1.45-.25.42-.05.85-.07,1.28-.06.85,0,1.7.1,2.54.28s1.65.45,2.43.79,1.53.77,2.22,1.26,1.34,1.06,1.91,1.69c.1.11.2.23.3.35,2.87-3.45,7.76-5.08,12.13-4.06-.71,5.33-5.33,9.88-10.67,10.5-.16,1.88.99,3.8,2.72,4.54s3.92.24,5.16-1.17c.76-.86,1.15-1.97,1.69-2.99,2.12-4.07,6.72-6.71,11.31-6.5s8.92,3.28,10.65,7.53c.59,1.46.87,3.04.85,4.61Z" fill="#b3b4b1"/>
  <path d="M47,26.43c0,2.42-.72,4.84-2.11,6.87-.53.78-1.15,1.46-1.83,2.07-1.17,1.04-2.54,1.85-4.02,2.49-1.51.65-3.1,1.09-4.72,1.32-5.14.73-10.49-.6-14.65-3.7-.65-.48-1.26-1.01-1.85-1.56,2.09,1.7,4.76,2.72,7.67,2.72,3.6,0,7.08-1.67,9.36-4.45,1.2-1.46,2.02-3.21,2.52-5.03.47-1.7.99-3.38,2.3-4.64,1.41-1.35,3.32-2.12,5.27-2.12.16,0,.33,0,.49.02.18.32.35.64.5.97.73,1.6,1.09,3.33,1.08,5.05Z" fill="#dbeaea"/>
  <path d="M31.39,39.2c-.78,1.74-2.51,2.75-4.31,2.69,1.21-3.06.3-6.47-2.08-8.54,1.22-.68,2.73-.79,4.1-.18,2.3,1.03,3.32,3.73,2.29,6.03Z" fill="#b3b4b1"/>
</svg>