<?xml version="1.0" encoding="UTF-8"?>
<svg id="svg2" xmlns="http://www.w3.org/2000/svg" version="1.1" xmlns:cc="http://creativecommons.org/ns#" xmlns:dc="http://purl.org/dc/elements/1.1/" xmlns:rdf="http://www.w3.org/1999/02/22-rdf-syntax-ns#" xmlns:svg="http://www.w3.org/2000/svg" xmlns:xlink="http://www.w3.org/1999/xlink" viewBox="0 0 32 32">
  <!-- Generator: Adobe Illustrator 30.3.0, SVG Export Plug-In . SVG Version: 2.1.3 Build 182)  -->
  <defs>
    <linearGradient id="linear-gradient" x1="183.17" y1="181.04" x2="188.47" y2="200.86" gradientTransform="translate(-169.5 -171)" gradientUnits="userSpaceOnUse">
      <stop offset="0" stop-color="#0669bc"/>
      <stop offset=".71" stop-color="#1b4779"/>
      <stop offset="1" stop-color="#233b61"/>
    </linearGradient>
    <radialGradient id="radial-gradient" cx="254.15" cy="-176.74" fx="254.15" fy="-176.74" r=".13" gradientTransform="translate(1472.94 -9551.39) rotate(134.89) scale(30.71 32.29)" gradientUnits="userSpaceOnUse">
      <stop offset="0" stop-color="#1b4779"/>
      <stop offset="1" stop-color="#0669bc" stop-opacity="0"/>
    </radialGradient>
    <radialGradient id="radial-gradient1" cx="256.56" cy="-174.44" fx="256.56" fy="-174.44" r=".13" gradientTransform="translate(1592.94 -9551.39) rotate(134.89) scale(30.71 32.29)" gradientUnits="userSpaceOnUse">
      <stop offset="0" stop-color="#1b4779"/>
      <stop offset="1" stop-color="#0669bc" stop-opacity="0"/>
    </radialGradient>
    <linearGradient id="linear-gradient1" x1="185" y1="172.9" x2="185" y2="177.44" gradientTransform="translate(-169.5 -171)" gradientUnits="userSpaceOnUse">
      <stop offset="0" stop-color="#30daff"/>
      <stop offset="1" stop-color="#0194d4"/>
    </linearGradient>
    <linearGradient id="linear-gradient2" x1="185" y1="172.32" x2="185" y2="173.76" gradientTransform="translate(-169.5 -171)" gradientUnits="userSpaceOnUse">
      <stop offset="0" stop-color="#1fb8fd"/>
      <stop offset="1" stop-color="#0591f2"/>
    </linearGradient>
  </defs>
  <path d="M31,6.25c0-.69-.56-1.25-1.25-1.25H1.25c-.69,0-1.25.56-1.25,1.25v20.75c0,2.76,2.24,5,5,5h21c2.76,0,5-2.24,5-5V6.25Z" fill="url(#linear-gradient)"/>
  <path d="M15,12h-6v6h6v-6Z" fill="#f25022"/>
  <path d="M22,12h-6v6h6v-6Z" fill="#7fba00"/>
  <path d="M15,19h-6v6h6v-6Z" fill="#00a4ef"/>
  <path d="M22,19h-6v6h6v-6Z" fill="#ffb900"/>
  <path d="M13.92,5H2.08c-.05.33-.08.66-.08,1,0,3.31,2.69,6,6,6s6-2.69,6-6c0-.34-.03-.67-.08-1Z" fill="url(#radial-gradient)" isolation="isolate" opacity=".87"/>
  <path d="M28.92,5h-11.83c-.05.33-.08.66-.08,1,0,3.31,2.69,6,6,6s6-2.69,6-6c0-.34-.03-.67-.08-1Z" fill="url(#radial-gradient1)" isolation="isolate" opacity=".87"/>
  <path d="M7,3c0-1.1.9-2,2-2h13c1.1,0,2,.9,2,2v3c0,.55-.45,1-1,1s-1-.45-1-1v-3h-13v3c0,.55-.45,1-1,1s-1-.45-1-1v-3Z" fill="url(#linear-gradient1)"/>
  <path d="M22,1h-13v2h13V1Z" fill="url(#linear-gradient2)"/>
</svg>